<!-- O ícone do sheetwise: a pauta com a clave de Sol e a nota que se está lendo, em lavanda.
     Paleta Noite, a da família *wise (wisekit, guia/01-identidade.md). A clave é o contorno do
     gClef da Bravura (SIL Open Font License), o mesmo desenho que o VexFlow usa na pauta do app.
     É também o favicon: public/favicon.svg é cópia, feita pelo scripts/gen-icons.sh. -->
<svg xmlns="http://www.w3.org/2000/svg" viewBox="0 0 64 64">
  <rect width="64" height="64" rx="14" fill="#1e1b4b"/>
  <!-- a pauta: cinco linhas, espaço de 6 -->
  <path d="M10 20H54M10 26H54M10 32H54M10 38H54M10 44H54" stroke="#e0e7ff" stroke-opacity="0.35" stroke-width="1.6" stroke-linecap="round" fill="none"/>
  <!-- a clave de Sol, com o caracol na 2ª linha (y 38); 360 unidades da fonte = 1 espaço -->
  <path transform="translate(13 38) scale(0.016667)" fill="#e0e7ff" d="M541 -598C539 -615 541 -616 550 -625C706 -770 824 -953 824 -1174C824 -1299 789 -1423 730 -1509C708 -1541 671 -1581 655 -1581C635 -1581 590 -1544 562 -1512C455 -1394 420 -1214 420 -1064C420 -981 431 -887 441 -828C444 -811 445 -808 428 -793C220 -622 0 -416 0 -125C0 125 171 363 524 363C557 363 595 360 624 354C639 351 642 350 645 367C662 464 684 589 684 657C684 870 540 896 455 896C377 896 340 873 340 854C340 844 353 840 386 829C431 816 482 778 482 694C482 615 432 547 344 547C248 547 190 624 190 713C190 806 246 948 464 948C560 948 747 904 747 660C747 577 721 441 706 351C703 334 704 336 724 327C870 269 966 147 966 -16C966 -200 831 -363 619 -363C582 -363 582 -363 577 -389ZM677 -1358C724 -1358 763 -1319 763 -1240C763 -1080 626 -950 513 -851C503 -842 497 -844 494 -863C488 -900 485 -949 485 -995C485 -1220 589 -1358 677 -1358ZM520 -377C524 -350 524 -351 498 -343C372 -300 289 -186 289 -63C289 66 357 158 455 192C467 196 484 200 494 200C505 200 511 193 511 184C511 174 500 170 490 166C429 140 386 78 386 12C386 -71 442 -132 530 -157C553 -163 556 -161 559 -145L631 284C634 300 632 300 611 304C588 308 559 311 530 311C278 311 115 171 115 -29C115 -114 130 -228 249 -363C336 -459 402 -513 469 -567C484 -579 487 -577 490 -562ZM619 -148C616 -166 618 -170 635 -168C752 -158 848 -60 848 66C848 157 793 230 713 271C696 279 693 279 690 262Z"/>
  <!-- a nota lida: Dó no 3º espaço -->
  <ellipse cx="44" cy="29" rx="4.3" ry="3.2" transform="rotate(-20 44 29)" fill="#a5b4fc"/>
</svg>
